<svg xmlns="http://www.w3.org/2000/svg" xmlns:xlink="http://www.w3.org/1999/xlink"><symbol id="arrow" viewBox="0 0 12 10">
<path d="M12 4.35124H2.49462L5.94396 0.917348L5.02248 0L0 5L5.02248 10L5.94396 9.08265L2.49462 5.64876H12V4.35124Z" fill="#005FAE"/>
</symbol><symbol id="comment" viewBox="0 0 20 20">
<path d="M5.18911 14.077L4.55551 15.397C4.43231 15.6434 4.48511 15.9426 4.66111 16.1538C4.80191 16.2946 4.97791 16.3826 5.17151 16.3826C5.24191 16.3826 5.32991 16.365 5.40031 16.3474L8.44511 15.2562C8.88511 15.3266 9.34271 15.3618 9.80031 15.3618C13.9187 15.3618 17.2803 12.6338 17.2803 9.28977C17.2803 5.94577 13.9187 3.21777 9.80031 3.21777C5.68191 3.21777 2.32031 5.94577 2.32031 9.28977C2.32031 11.1554 3.39391 12.933 5.18911 14.077ZM9.80031 4.27377C13.3379 4.27377 16.2243 6.52657 16.2243 9.28977C16.2243 12.053 13.3379 14.3058 9.80031 14.3058C9.36031 14.3058 8.93791 14.2706 8.51551 14.2002C8.40991 14.1826 8.28671 14.2002 8.18111 14.2354L5.89311 15.045L6.28031 14.2178C6.43871 13.901 6.31551 13.4962 5.99871 13.3202C4.34431 12.3698 3.37631 10.8562 3.37631 9.27217C3.37631 6.52657 6.26271 4.27377 9.80031 4.27377Z" fill="#999999"/>
<line x1="6.5" y1="8.5" x2="12.5" y2="8.5" stroke="#999999" stroke-linecap="round" stroke-linejoin="round"/>
<line x1="6.5" y1="10.5" x2="10.5" y2="10.5" stroke="#999999" stroke-linecap="round" stroke-linejoin="round"/>
</symbol><symbol id="label" viewBox="0 0 20 20">
<path d="M19.9025 10.6673L18.7237 8.79531L19.4229 6.69439C19.469 6.55543 19.466 6.4047 19.4144 6.26773C19.3628 6.13075 19.2657 6.01595 19.1396 5.94277L17.2321 4.83566L16.8813 2.64801C16.8577 2.50337 16.7853 2.37134 16.6763 2.27414C16.5674 2.17694 16.4284 2.12052 16.283 2.11438L14.0828 2.02765L12.7628 0.254093C12.6756 0.136726 12.5506 0.0534254 12.4093 0.0183799C12.2679 -0.0166657 12.1189 -0.00128854 11.9875 0.0618921L10 1.01352L8.01174 0.0611108C7.88018 -0.00138882 7.73124 -0.0163205 7.59002 0.0188318C7.4488 0.0539842 7.32393 0.137072 7.23646 0.254093L5.91638 2.02765L3.71626 2.11438C3.57091 2.12023 3.43203 2.17647 3.32313 2.27357C3.21424 2.37067 3.14202 2.50267 3.11869 2.64723L2.76792 4.83488L0.860365 5.94199C0.734158 6.01505 0.636928 6.1298 0.58516 6.26678C0.533392 6.40377 0.530272 6.55456 0.576328 6.6936L1.27556 8.79453L0.0975 10.6673C0.0197883 10.7913 -0.013003 10.9385 0.00467382 11.084C0.0223507 11.2295 0.0894103 11.3644 0.194507 11.4658L1.7831 12.9995L1.6046 15.2075C1.59273 15.3536 1.63136 15.4993 1.71394 15.6201C1.79653 15.7408 1.91801 15.8291 2.05782 15.87L4.17258 16.4833L5.03323 18.5233C5.08973 18.6585 5.19113 18.7698 5.32009 18.838C5.44905 18.9063 5.59755 18.9274 5.74022 18.8976L7.89766 18.4522L9.60033 19.8562C9.71596 19.9508 9.85798 20 10 20C10.142 20 10.2833 19.9508 10.3997 19.8562L12.1023 18.4522L14.2598 18.8976C14.5524 18.9601 14.8496 18.8015 14.9668 18.5233L15.8274 16.4833L17.9422 15.87C18.0821 15.8292 18.2036 15.741 18.2862 15.6202C18.3689 15.4994 18.4074 15.3536 18.3954 15.2075L18.2169 12.9995L19.8055 11.4658C19.9106 11.3644 19.9776 11.2295 19.9953 11.084C20.013 10.9385 19.9802 10.7913 19.9025 10.6673ZM14.5609 7.61164L10.1443 14.273C9.97749 14.5215 9.71907 14.6879 9.46219 14.6879C9.20609 14.6879 8.91973 14.5434 8.73735 14.359L5.49498 11.0423C5.3887 10.9326 5.32922 10.7854 5.32922 10.6322C5.32922 10.4789 5.3887 10.3317 5.49498 10.222L6.2951 9.40161C6.34753 9.34852 6.40987 9.3064 6.47852 9.27766C6.54718 9.24891 6.6208 9.23412 6.69516 9.23412C6.76951 9.23412 6.84314 9.24891 6.91179 9.27766C6.98045 9.3064 7.04278 9.34852 7.09521 9.40161L9.20532 11.5596L12.6852 6.31076C12.7264 6.24817 12.7796 6.19448 12.8417 6.15281C12.9038 6.11115 12.9735 6.08235 13.0467 6.06809C13.12 6.05384 13.1953 6.05441 13.2684 6.06979C13.3414 6.08516 13.4106 6.11502 13.4721 6.15763L14.4103 6.80689C14.6688 6.98659 14.7355 7.34834 14.5609 7.61164Z" fill="#005FAE"/>
</symbol><symbol id="search" viewBox="0 0 18 18">
<path d="M12.5 11H11.71L11.43 10.73C12.4439 9.55402 13.0011 8.0527 13 6.5C13 5.21442 12.6188 3.95772 11.9046 2.8888C11.1903 1.81988 10.1752 0.986755 8.98744 0.494786C7.79972 0.00281635 6.49279 -0.125905 5.23191 0.124899C3.97104 0.375703 2.81285 0.994767 1.90381 1.90381C0.994767 2.81285 0.375703 3.97104 0.124899 5.23191C-0.125905 6.49279 0.00281635 7.79972 0.494786 8.98744C0.986755 10.1752 1.81988 11.1903 2.8888 11.9046C3.95772 12.6188 5.21442 13 6.5 13C8.11 13 9.59 12.41 10.73 11.43L11 11.71V12.5L16 17.49L17.49 16L12.5 11ZM6.5 11C4.01 11 2 8.99 2 6.5C2 4.01 4.01 2 6.5 2C8.99 2 11 4.01 11 6.5C11 8.99 8.99 11 6.5 11Z" fill="white"/>
</symbol><symbol id="view" viewBox="0 0 18 10">
<path d="M9 0.179077C4.28375 0.179077 0.5625 5.00033 0.5625 5.00033C0.5625 5.00033 4.28375 9.8222 9 9.8222C12.6062 9.8222 17.4375 5.00033 17.4375 5.00033C17.4375 5.00033 12.6062 0.179077 9 0.179077ZM9 8.00408C7.34375 8.00408 5.99563 6.65658 5.99563 5.00033C5.99563 3.34408 7.34375 1.99595 9 1.99595C10.6562 1.99595 12.0044 3.34408 12.0044 5.00033C12.0044 6.65658 10.6562 8.0047 9 8.0047V8.00408ZM9 3.24658C8.76695 3.24218 8.53536 3.28428 8.31877 3.37042C8.10218 3.45656 7.90494 3.58502 7.73857 3.74828C7.5722 3.91153 7.44004 4.10632 7.34983 4.32124C7.25961 4.53617 7.21314 4.76692 7.21314 5.00002C7.21314 5.23311 7.25961 5.46386 7.34983 5.67879C7.44004 5.89371 7.5722 6.0885 7.73857 6.25175C7.90494 6.41501 8.10218 6.54347 8.31877 6.62961C8.53536 6.71575 8.76695 6.75785 9 6.75345C9.45931 6.74478 9.89688 6.55623 10.2186 6.22834C10.5404 5.90045 10.7206 5.4594 10.7206 5.00002C10.7206 4.54063 10.5404 4.09958 10.2186 3.77169C9.89688 3.4438 9.45931 3.25525 9 3.24658Z" fill="#999999"/>
</symbol></svg>